<svg xmlns="http://www.w3.org/2000/svg" viewBox="90 1320 5970 4790"><g fill="rgb(255,255,255)" stroke="rgb(255,255,255)" stroke-width="50" style="transform: none;"><g><path d="M90 6046 c0 -104 83 -324 236 -626 170 -337 407 -674 720 -1027 141 -159 233 -303 309 -488 60 -145 59 -155 -32 -306 -38 -64 -82 -148 -96 -188 -49 -131 -104 -410 -126 -636 -6 -60 -16 -152 -23 -204 -29 -245 35 -664 138 -898 36 -81 124 -227 179 -295 33 -43 52 -58 70 -58 33 0 31 10 -6 46 -17 16 -55 65 -84 109 -258 390 -313 831 -194 1555 22 133 61 294 83 345 55 124 80 170 131 245 82 121 84 132 39 238 -102 240 -172 355 -323 538 -49 60 -132 159 -183 221 -51 62 -105 129 -121 150 -15 21 -47 64 -72 95 -128 164 -340 510 -429 703 -54 115 -127 302 -170 433 -21 61 -40 112 -42 112 -2 0 -4 -29 -4 -64z" /><path d="M3239 5355 c-105 -38 -413 -231 -749 -469 -266 -188 -512 -434 -652 -650 -60 -93 -66 -127 -80 -442 l-12 -284 -25 24 c-44 40 -68 48 -129 41 -69 -9 -129 -34 -158 -66 -68 -75 -141 -231 -174 -372 -72 -302 -66 -488 17 -569 33 -32 37 -33 111 -33 66 0 85 4 128 28 88 49 183 178 215 293 30 107 13 125 -88 94 -36 -11 -74 -20 -84 -20 -28 0 -43 40 -32 87 10 42 -2 39 122 31 41 -3 46 0 92 52 74 83 119 152 126 193 9 60 -20 47 -54 -23 -15 -33 -30 -60 -33 -60 -3 0 -11 14 -19 31 -19 43 -66 69 -123 69 -61 0 -97 -29 -105 -85 -4 -34 -1 -44 21 -66 25 -26 85 -49 125 -49 11 0 21 -5 21 -11 0 -8 -20 -10 -68 -5 -38 4 -76 4 -85 0 -27 -10 -47 -58 -47 -113 0 -105 30 -126 138 -97 82 22 92 14 67 -51 -57 -151 -185 -272 -288 -273 -59 0 -91 22 -117 82 -20 48 -22 63 -16 153 9 138 41 338 66 410 31 91 91 206 128 247 23 26 51 43 85 53 82 24 100 20 163 -35 31 -28 65 -50 76 -50 21 0 24 30 19 192 -3 96 12 318 30 433 5 32 20 82 34 110 57 116 288 385 438 511 268 226 688 504 925 613 47 22 52 27 52 58 0 37 -6 38 -61 18z m-1538 -2114 c32 -32 39 -75 13 -85 -52 -20 -134 16 -134 58 0 29 33 56 68 56 13 0 37 -13 53 -29z" /><path d="M3401 4905 c-51 -16 -95 -55 -122 -107 -18 -35 -19 -63 -19 -428 l0 -390 80 0 80 0 0 385 0 386 25 24 c31 32 74 33 103 2 21 -23 22 -30 22 -273 0 -439 -28 -553 -200 -821 -28 -43 -62 -114 -77 -158 -26 -77 -27 -91 -31 -337 -5 -319 1 -346 80 -405 l52 -38 101 0 c99 0 101 0 150 35 80 57 84 78 85 428 l0 292 -80 0 -80 0 0 -294 c0 -282 -1 -294 -21 -320 -32 -40 -111 -29 -123 18 -3 11 -6 113 -6 226 0 297 21 375 160 590 51 79 85 146 110 215 l35 100 3 361 c3 345 3 364 -16 400 -27 52 -81 102 -123 114 -47 14 -135 11 -188 -5z" /><path d="M4120 3820 l0 -1060 175 0 175 0 0 60 0 60 -95 0 -95 0 0 410 0 410 75 0 75 0 0 60 0 60 -75 0 -75 0 0 470 0 470 95 0 95 0 0 60 0 60 -175 0 -175 0 0 -1060z" /><path d="M4850 3820 l0 -1060 180 0 181 0 -3 58 -3 57 -97 3 -98 3 0 409 0 410 80 0 80 0 0 60 0 60 -80 0 -80 0 0 470 0 470 100 0 100 0 0 60 0 60 -180 0 -180 0 0 -1060z" /><path d="M5590 3820 l0 -1060 80 0 c44 0 80 3 80 8 0 20 190 1515 192 1517 2 2 1 -341 0 -761 l-4 -764 61 0 61 0 0 1060 0 1060 -77 0 -78 0 -95 -758 -95 -757 -3 758 -2 757 -60 0 -60 0 0 -1060z" /><path d="M5299 2275 c-76 -24 -148 -125 -149 -206 -1 -160 133 -276 277 -240 45 12 113 53 113 69 0 4 -14 22 -31 40 l-30 33 -30 -25 c-67 -57 -156 -19 -181 76 -10 40 -9 52 7 87 24 55 46 72 97 78 34 4 49 0 71 -17 15 -12 27 -30 27 -41 0 -16 -7 -19 -50 -19 l-50 0 0 -40 0 -40 105 0 105 0 0 53 c0 108 -80 197 -182 203 -29 2 -74 -3 -99 -11z" /><path d="M3610 2055 l0 -225 90 0 c98 0 137 12 164 52 22 31 20 100 -3 129 -18 22 -18 23 20 59 35 33 39 42 39 85 0 42 -5 52 -39 86 l-39 39 -116 0 -116 0 0 -225z m182 128 c21 -18 24 -53 6 -71 -7 -7 -29 -12 -50 -12 l-38 0 0 50 c0 49 0 50 32 50 17 0 40 -7 50 -17z m-24 -195 c18 -18 14 -56 -7 -68 -40 -21 -51 -13 -51 35 0 40 2 45 23 45 13 0 28 -5 35 -12z" /><path d="M4040 2055 l0 -225 125 0 125 0 0 45 0 45 -75 0 -75 0 0 45 0 45 70 0 70 0 0 45 0 45 -70 0 -70 0 0 45 0 45 75 0 75 0 0 45 0 45 -125 0 -125 0 0 -225z" /><path d="M4420 2055 l0 -225 50 0 50 0 0 225 0 225 -50 0 -50 0 0 -225z" /><path d="M4660 2054 l0 -225 51 3 52 3 86 135 86 134 3 -137 3 -137 49 0 50 0 0 225 0 225 -52 0 -53 -1 -70 -111 c-111 -177 -104 -176 -105 -20 l0 132 -50 0 -50 0 0 -226z" /></g></g></svg>
